<svg xmlns="http://www.w3.org/2000/svg" viewBox="5710 7 97.382 47">
  <defs>
    <style>
      .a{fill:#003262}
    </style>
  </defs>
  <path class="a" d="M5735.966 30.465a2.564 2.564 0 0 0-2.149-.987c-1.022 0-2.008.458-2.008 1.585 0 2.466 5.813 1.057 5.813 5.426 0 2.642-2.079 3.911-4.475 3.911a5.052 5.052 0 0 1-4.016-1.656l1.656-1.585a2.868 2.868 0 0 0 2.431 1.268c1.022 0 2.149-.564 2.149-1.691 0-2.678-5.813-1.127-5.813-5.531 0-2.537 2.255-3.7 4.51-3.7a5 5 0 0 1 3.523 1.268zM5738.186 33.565v-1.757h1.726v-2.4h2.079v2.4h2.295v1.762h-2.29v3.629c0 .846.247 1.339 1.163 1.339a2.313 2.313 0 0 0 1.127-.247v1.757a4.311 4.311 0 0 1-1.656.282c-2.184 0-2.713-.987-2.713-2.96v-3.805zM5751.046 38.956h-.035a2.951 2.951 0 0 1-2.678 1.336c-1.55 0-3.03-.846-3.03-2.5 0-2.713 3.171-2.889 5.25-2.889h.529v-.211c0-1.022-.81-1.55-1.9-1.55a3.237 3.237 0 0 0-2.22.881l-1.092-1.092a4.8 4.8 0 0 1 3.523-1.339c3.558 0 3.558 2.572 3.558 3.735v4.792h-1.867v-1.163zm-.106-2.572h-.423c-1.127 0-3.136.07-3.136 1.268 0 .775.775 1.092 1.445 1.092 1.409 0 2.114-.74 2.114-1.9zM5754.745 31.803h2.079v1.3h.035a2.742 2.742 0 0 1 3.206-1.409v2.008a5.093 5.093 0 0 0-1.022-.141 2.073 2.073 0 0 0-2.22 2.114v4.439h-2.078zM5761.263 27.012h2.079v8.244l3.206-3.453h2.678l-3.558 3.77 3.805 4.545h-2.748l-3.312-4.263h-.035v4.263h-2.079V27.012z"/>
  <path class="a" d="M5771.269 36.666a2.159 2.159 0 0 0 2.22 1.973 2.662 2.662 0 0 0 2.22-1.127l1.48 1.127a4.449 4.449 0 1 1-3.524-7.082c2.325 0 3.911 1.621 3.911 4.51v.564h-6.307zm4.263-1.55a1.926 1.926 0 0 0-2.114-1.973 2.054 2.054 0 0 0-2.149 1.973zM5777.928 31.804h2.29l2.325 5.778h.035l2.079-5.778h2.149l-3.946 9.795c-.6 1.55-1.339 2.361-3.171 2.361a5.935 5.935 0 0 1-1.585-.211l.247-1.867a3.523 3.523 0 0 0 1.057.211c1.022 0 1.3-.07 1.656-.916l.388-.987z"/>
  <g>
    <path d="M5786.807 23.242V23l-46.3-1.938L5737.058 7l-9.23 14.163h-17.3l11.557 11.169S5710.035 54 5710 54c8.491-7.082 15.749-8.033 15.749-8.033a17.344 17.344 0 0 0-10.429 2.607l9.83-16.774-9.619-8.558h13.741l7.011-11.662 2.467 11.662h44.886" fill="#fdb913"/>
  </g>
  <g>
    <path class="a" d="M5786.807 38.357a.987.987 0 1 1-.987.986.985.985 0 0 1 .987-.986zm0 1.8a.806.806 0 0 0 .81-.846.827.827 0 0 0-.81-.846.846.846 0 0 0 0 1.691zm-.388-1.409h.423c.282 0 .388.106.388.317s-.141.282-.317.317l.317.493h-.176l-.317-.493h-.176v.493h-.176v-1.13zm.176.528h.176c.141 0 .317 0 .317-.176 0-.141-.141-.176-.247-.176h-.211v.352z"/>
  </g>
  <g>
    <path class="a" d="M5729.413 45.122h.7v2.466h3.1v-2.466h.7v5.849h-.7v-2.749h-3.1v2.713h-.7zM5738.397 50.266a1.956 1.956 0 0 1-1.726.81 1.915 1.915 0 0 1-1.938-2.043 1.944 1.944 0 0 1 1.973-2.043 1.791 1.791 0 0 1 1.832 2.008v.211h-3.105a1.279 1.279 0 0 0 1.268 1.233 1.457 1.457 0 0 0 1.233-.6zm-.564-1.585a1.094 1.094 0 0 0-1.163-1.092 1.208 1.208 0 0 0-1.268 1.092zM5739.313 47.589a2.246 2.246 0 0 1 1.55-.6 1.41 1.41 0 0 1 1.621 1.621v1.656a4.317 4.317 0 0 0 .07.669h-.634a3.223 3.223 0 0 1-.035-.564 1.441 1.441 0 0 1-1.268.669c-.775 0-1.445-.388-1.445-1.127 0-1.268 1.48-1.339 2.431-1.339h.247v-.106c0-.564-.352-.846-.951-.846a1.6 1.6 0 0 0-1.127.423zm1.867 1.515c-.81 0-1.339.211-1.339.74 0 .493.352.669.846.669a1.081 1.081 0 0 0 1.127-1.163v-.247zM5743.541 48.011c0-.352-.035-.669-.035-.916h.6v.634a1.366 1.366 0 0 1 1.268-.74.6.6 0 0 1 .247.035l-.035.634a1.2 1.2 0 0 0-.352-.035c-.775 0-1.127.564-1.127 1.445v1.867h-.636v-2.924zM5746.747 45.122a.466.466 0 0 1 .458.458.458.458 0 0 1-.916 0 .425.425 0 0 1 .458-.458zm-.317 1.973h.634v3.84h-.634zM5748.156 48.011c0-.352-.035-.669-.035-.916h.6c0 .211.035.423.035.634a1.366 1.366 0 0 1 1.268-.74 1.385 1.385 0 0 1 1.48 1.585v2.4h-.634v-2.325c0-.634-.282-1.057-.881-1.057-.846 0-1.2.6-1.2 1.48v1.867h-.634zM5756.366 50.794a1.883 1.883 0 0 1-2.079 2.149 2.681 2.681 0 0 1-1.938-.74l.458-.528a1.877 1.877 0 0 0 1.445.669c1.163 0 1.445-.74 1.445-1.55v-.493a1.585 1.585 0 0 1-1.374.7 1.944 1.944 0 0 1-2.044-1.969 1.905 1.905 0 0 1 2.043-2.043 1.535 1.535 0 0 1 1.374.775v-.669h.634v3.7zm-2.043-.388a1.34 1.34 0 0 0 1.374-1.409 1.323 1.323 0 0 0-1.374-1.409 1.371 1.371 0 0 0-1.374 1.445 1.4 1.4 0 0 0 1.373 1.374z"/>
    <g>
      <path class="a" d="M5760.667 46.073h-1.8v-.951h4.615v.951h-1.8v4.9h-1.015zM5763.835 49.315a1.037 1.037 0 0 0 1.057.951 1.348 1.348 0 0 0 1.057-.528l.7.528a2.077 2.077 0 0 1-1.691.775 2.08 2.08 0 1 1 0-4.157c1.092 0 1.867.775 1.867 2.149v.282h-2.995zm2.008-.74a.926.926 0 0 0-1.022-.951.986.986 0 0 0-1.022.951zM5770.388 48.187a1.1 1.1 0 0 0-.74-.388 1.2 1.2 0 0 0 0 2.4.936.936 0 0 0 .775-.388l.669.7a2.341 2.341 0 0 1-1.409.564 2.08 2.08 0 1 1 0-4.157 1.97 1.97 0 0 1 1.445.6zM5772.714 47.553a1.29 1.29 0 0 1 1.163-.634 1.376 1.376 0 0 1 1.445 1.55v2.5h-.986v-2.008c0-.423-.035-1.163-.74-1.163a.915.915 0 0 0-.916 1.022v2.149h-.988v-5.953h.986v2.537zM5776.377 46.99h.951v.634a1.256 1.256 0 0 1 1.2-.74 1.376 1.376 0 0 1 1.445 1.55v2.5h-.987v-2.008c0-.423-.035-1.163-.74-1.163a.915.915 0 0 0-.916 1.022v2.149h-.988v-3.946zM5782.895 46.884a2.08 2.08 0 1 1-2.149 2.079 2.056 2.056 0 0 1 2.149-2.079zm0 3.277a1.2 1.2 0 1 0-1.163-1.2 1.137 1.137 0 0 0 1.163 1.2zM5785.749 44.981h.987v5.954h-.987zM5789.695 46.884a2.08 2.08 0 1 1-2.149 2.079 2.056 2.056 0 0 1 2.149-2.079zm0 3.277a1.2 1.2 0 1 0-1.163-1.2 1.137 1.137 0 0 0 1.163 1.2zM5796.742 46.989v3.594a2.053 2.053 0 0 1-2.22 2.325 2.833 2.833 0 0 1-1.973-.634l.6-.81a1.945 1.945 0 0 0 1.374.564c.951 0 1.268-.528 1.268-1.339v-.282a1.611 1.611 0 0 1-1.3.564 2.064 2.064 0 0 1-.035-4.122 1.545 1.545 0 0 1 1.374.7v-.6h.916zm-3.277 1.973a1.122 1.122 0 0 0 1.163 1.127 1.091 1.091 0 0 0 1.163-1.163 1.11 1.11 0 0 0-1.163-1.163 1.159 1.159 0 0 0-1.163 1.199zM5798.221 45.051a.6.6 0 1 1 0 1.2.6.6 0 1 1 0-1.2zm-.493 1.938h.986v3.946h-.986zM5800.582 49.315a1.015 1.015 0 0 0 1.057.951 1.348 1.348 0 0 0 1.057-.528l.7.528a2.077 2.077 0 0 1-1.691.775 2.08 2.08 0 1 1 0-4.157c1.092 0 1.867.775 1.867 2.149v.282h-2.995zm2.008-.74a.927.927 0 0 0-1.022-.951.986.986 0 0 0-1.022.951zM5806.572 48.082a.891.891 0 0 0-.775-.388c-.282 0-.564.141-.564.423 0 .7 2.149.141 2.149 1.656 0 .951-.916 1.268-1.691 1.268a1.968 1.968 0 0 1-1.55-.6l.669-.6a1.217 1.217 0 0 0 .951.493c.282 0 .669-.141.669-.458 0-.81-2.149-.176-2.149-1.691 0-.881.81-1.268 1.585-1.268a1.745 1.745 0 0 1 1.409.6z"/>
    </g>
  </g>
</svg>
